<?xml version="1.0" standalone="no"?>
<!DOCTYPE svg PUBLIC "-//W3C//DTD SVG 20010904//EN"
 "http://www.w3.org/TR/2001/REC-SVG-20010904/DTD/svg10.dtd">
<svg version="1.0" xmlns="http://www.w3.org/2000/svg"
 width="2025.000000pt" height="2025.000000pt" viewBox="0 0 2025.000000 2025.000000"
 preserveAspectRatio="xMidYMid meet">
<metadata>
Created by potrace 1.14, written by Peter Selinger 2001-2017
</metadata>
<g transform="translate(0.000000,2025.000000) scale(0.100000,-0.100000)"
fill="#000000" stroke="none">
<path d="M6686 17053 c-1 -2 -34 -5 -72 -7 -130 -9 -405 -66 -494 -103 -8 -3
-19 -7 -25 -8 -106 -26 -485 -231 -545 -295 -3 -3 -25 -21 -50 -40 -93 -73
-300 -277 -300 -296 0 -2 -8 -12 -17 -22 -28 -30 -53 -62 -53 -68 0 -3 -16
-25 -35 -48 -19 -24 -35 -48 -35 -55 0 -6 -4 -11 -9 -11 -5 0 -11 -8 -14 -17
-8 -24 -40 -76 -52 -85 -7 -5 -7 -8 0 -8 6 0 5 -3 -1 -8 -19 -12 -133 -267
-134 -297 0 -3 -7 -19 -15 -35 -9 -17 -13 -30 -11 -30 3 0 -4 -25 -14 -55 -10
-30 -21 -71 -24 -91 -4 -20 -8 -39 -10 -43 -3 -3 -7 -25 -10 -47 -4 -22 -9
-51 -11 -64 -21 -101 -28 -446 -12 -560 4 -30 9 -72 12 -92 29 -216 131 -502
250 -703 19 -33 40 -70 47 -82 6 -13 15 -23 20 -23 4 0 8 -5 8 -10 0 -9 66
-104 95 -136 6 -6 28 -33 50 -59 62 -73 247 -255 260 -255 3 0 13 -8 23 -17
10 -10 31 -27 46 -38 16 -11 41 -30 56 -42 15 -13 33 -23 39 -23 6 0 11 -4 11
-10 0 -5 6 -10 14 -10 8 0 21 -6 28 -12 21 -20 49 -37 98 -60 25 -11 47 -25
48 -29 2 -5 12 -9 23 -9 10 0 19 -4 19 -10 0 -5 6 -10 14 -10 8 0 27 -7 43
-15 23 -13 65 -31 93 -40 3 -1 19 -7 35 -14 17 -7 35 -14 40 -15 6 -1 48 -14
95 -28 47 -14 103 -29 125 -34 22 -4 45 -8 50 -10 6 -1 26 -5 45 -8 293 -51
632 -35 895 40 28 8 55 15 60 15 48 8 276 103 385 162 65 36 246 151 260 167
3 3 23 18 45 35 41 31 262 248 305 300 70 84 186 259 220 330 8 17 23 42 33
58 10 15 16 27 13 27 -3 0 3 15 13 34 22 39 91 220 98 255 2 14 7 29 10 34 5
9 33 117 38 152 6 34 16 97 20 117 26 131 25 492 0 618 -3 14 -10 51 -15 82
-31 169 -120 416 -208 578 -53 99 -157 254 -222 331 -111 133 -367 369 -400
369 -6 0 -10 4 -10 10 0 5 -16 16 -35 25 -19 9 -39 23 -46 31 -6 8 -17 14 -24
14 -8 0 -15 3 -17 8 -4 8 -59 39 -148 82 -36 18 -76 37 -90 45 -14 7 -43 18
-65 25 -22 7 -44 16 -50 20 -8 6 -50 20 -75 24 -3 1 -11 5 -17 9 -7 5 -13 6
-13 3 0 -3 -12 -1 -27 5 -34 13 -66 21 -173 43 -50 11 -142 24 -235 32 -69 7
-264 11 -269 7z"/>
<path d="M13397 17054 c-1 -1 -38 -4 -81 -8 -99 -7 -250 -33 -341 -57 -38 -11
-81 -22 -95 -25 -54 -12 -260 -98 -350 -146 -95 -50 -246 -145 -271 -171 -8
-7 -22 -18 -31 -23 -18 -10 -141 -118 -192 -169 -61 -60 -130 -140 -182 -209
-30 -39 -58 -76 -63 -82 -4 -5 -14 -21 -21 -35 -7 -13 -16 -26 -19 -29 -8 -6
-53 -82 -93 -159 -31 -58 -107 -235 -113 -261 -2 -8 -4 -16 -5 -17 -2 -2 -4
-7 -5 -13 -1 -5 -3 -11 -5 -12 -1 -2 -3 -10 -5 -18 -1 -8 -10 -40 -19 -71 -29
-99 -46 -181 -63 -309 -15 -107 -7 -505 10 -567 3 -10 8 -35 11 -55 12 -83 59
-256 88 -326 6 -15 12 -32 13 -38 5 -22 69 -162 103 -224 147 -269 259 -404
555 -665 9 -8 19 -15 22 -15 3 0 11 -5 18 -10 56 -47 74 -60 85 -60 6 0 12 -4
12 -10 0 -5 6 -10 14 -10 8 0 16 -3 18 -7 4 -10 57 -42 81 -50 9 -3 17 -9 17
-14 0 -5 9 -9 20 -9 11 0 20 -4 20 -8 0 -8 77 -46 83 -40 1 2 15 -5 30 -15 22
-14 165 -72 202 -81 6 -2 17 -6 25 -9 14 -5 60 -16 77 -18 5 -1 18 -5 31 -10
12 -5 33 -11 45 -13 12 -3 33 -7 47 -10 14 -3 45 -9 70 -12 25 -3 54 -8 65
-10 150 -30 458 -22 655 16 158 30 279 66 395 116 17 7 53 22 80 34 91 39 212
109 331 192 99 68 110 77 246 203 44 42 151 160 190 211 12 16 25 31 28 34 14
12 120 179 120 189 0 6 5 11 10 11 6 0 10 4 10 10 0 5 13 31 29 59 16 27 27
52 24 55 -4 3 0 6 7 6 7 0 11 3 7 6 -3 3 6 26 19 50 14 24 22 44 18 44 -4 0
-2 6 3 13 10 12 52 119 58 147 2 8 10 35 18 60 19 55 34 114 41 160 6 34 10
57 21 110 38 182 20 599 -36 801 -11 41 -22 84 -25 97 -9 45 -73 210 -116 302
-46 99 -135 253 -150 258 -4 2 -8 8 -8 14 0 8 -38 64 -65 94 -5 7 -26 31 -45
55 -44 56 -232 244 -285 286 -112 88 -145 113 -155 113 -5 0 -10 4 -10 9 0 5
-15 16 -32 25 -18 9 -51 28 -73 42 -57 35 -189 99 -197 96 -5 -1 -8 3 -8 8 0
5 -3 9 -7 8 -5 -1 -18 3 -30 10 -13 7 -23 10 -23 7 0 -3 -12 0 -27 9 -43 22
-186 68 -256 82 -10 2 -26 5 -35 8 -18 6 -57 13 -112 22 -19 3 -46 7 -60 9
-66 11 -354 26 -363 19z"/>
<path d="M1977 13634 c-1 -1 -39 -5 -84 -8 -45 -4 -92 -9 -105 -11 -13 -3 -43
-8 -68 -11 -54 -7 -218 -47 -278 -68 -23 -8 -43 -15 -45 -15 -15 2 -215 -84
-297 -128 -90 -48 -255 -155 -305 -198 -72 -61 -141 -123 -179 -161 -83 -82
-236 -262 -236 -278 0 -4 -9 -16 -20 -28 -11 -12 -20 -28 -20 -35 0 -7 -4 -13
-8 -13 -5 0 -19 -19 -31 -42 -81 -150 -130 -248 -125 -248 3 0 -1 -11 -10 -25
-9 -14 -14 -25 -10 -25 4 0 2 -6 -3 -12 -9 -11 -33 -74 -39 -100 -1 -5 -3 -10
-4 -13 -1 -3 -3 -8 -5 -12 -1 -5 -4 -15 -8 -23 -3 -8 -9 -28 -13 -45 -4 -16
-8 -32 -9 -35 -2 -8 -15 -62 -21 -90 -3 -14 -7 -34 -9 -45 -2 -11 -6 -33 -9
-50 -5 -28 -11 -74 -21 -170 -6 -56 -6 -290 0 -350 26 -248 92 -486 196 -700
64 -133 107 -208 120 -213 5 -2 9 -8 9 -13 0 -17 83 -132 163 -224 88 -100
282 -285 310 -294 7 -2 16 -10 20 -17 4 -8 14 -14 21 -14 8 0 16 -7 20 -15 3
-8 12 -15 21 -15 8 0 15 -4 15 -10 0 -5 7 -10 15 -10 8 0 15 -3 15 -8 0 -7 30
-25 63 -38 9 -3 17 -10 17 -15 0 -5 5 -9 11 -9 6 0 23 -9 39 -20 15 -11 30
-17 34 -13 3 3 6 1 6 -5 0 -7 9 -12 20 -12 11 0 20 -5 20 -11 0 -5 5 -7 10 -4
6 3 10 1 10 -5 0 -6 5 -8 10 -5 5 3 10 1 10 -4 0 -6 7 -11 15 -11 9 0 27 -7
40 -16 14 -9 25 -13 25 -10 0 4 12 0 27 -8 25 -13 55 -26 76 -31 4 -2 9 -4 12
-5 3 -1 10 -4 15 -5 6 -1 11 -3 13 -5 1 -1 9 -3 17 -5 8 -3 47 -14 85 -25 39
-11 81 -22 95 -25 14 -3 36 -7 50 -10 197 -42 530 -52 695 -21 11 2 40 7 65
11 107 16 304 69 328 88 6 5 12 7 12 4 0 -7 97 33 218 88 45 21 82 42 82 46 0
5 6 9 12 9 19 0 121 65 223 140 153 114 265 222 380 365 22 28 43 52 48 53 4
2 7 10 7 17 0 7 4 15 8 17 12 4 92 125 92 137 0 6 5 11 11 11 5 0 7 5 4 10 -3
6 -2 10 4 10 5 0 13 10 17 23 4 12 9 24 13 27 8 7 53 97 52 104 0 3 11 26 24
51 14 25 23 45 19 45 -4 0 -2 6 4 13 12 16 65 172 87 257 13 53 24 107 30 145
3 17 7 41 10 54 19 95 27 392 13 516 -18 164 -55 329 -109 481 -31 90 -133
314 -147 324 -4 3 -19 26 -32 53 -14 26 -28 47 -32 47 -5 0 -8 5 -8 12 0 22
-145 202 -245 304 -84 86 -179 173 -220 202 -6 4 -35 25 -65 48 -30 22 -71 49
-90 60 -19 10 -37 21 -40 24 -18 18 -241 129 -290 145 -3 1 -12 5 -20 8 -57
24 -213 74 -255 81 -17 3 -41 8 -55 11 -143 32 -270 46 -429 49 -56 0 -103 1
-104 0z"/>
<path d="M18127 13634 c-1 -1 -40 -4 -87 -8 -125 -9 -353 -50 -410 -73 -8 -3
-20 -7 -27 -9 -21 -4 -88 -26 -98 -33 -5 -3 -15 -6 -21 -7 -34 -5 -224 -97
-326 -157 -199 -119 -346 -241 -511 -428 -55 -63 -160 -203 -179 -239 -7 -14
-19 -31 -25 -38 -7 -7 -13 -19 -13 -27 0 -7 -4 -15 -8 -17 -10 -3 -110 -208
-127 -258 -1 -3 -7 -18 -14 -35 -7 -16 -14 -37 -16 -45 -2 -8 -4 -16 -5 -17
-2 -2 -3 -6 -4 -10 -1 -5 -7 -21 -13 -38 -13 -31 -48 -168 -57 -220 -7 -41
-16 -94 -22 -141 -3 -21 -7 -127 -9 -234 -3 -200 9 -325 49 -495 21 -86 68
-234 95 -298 11 -26 20 -50 20 -52 0 -3 23 -50 51 -104 77 -149 180 -303 280
-415 84 -94 232 -236 295 -281 15 -11 33 -26 40 -32 8 -7 18 -13 23 -13 6 0
12 -3 14 -7 5 -12 66 -53 78 -53 5 0 10 -3 10 -8 0 -4 21 -19 48 -32 26 -14
49 -28 52 -31 9 -10 125 -64 133 -61 4 1 7 -3 7 -8 0 -5 3 -9 8 -8 4 0 23 -6
42 -14 47 -20 70 -28 74 -25 1 1 10 -4 19 -12 10 -7 17 -10 17 -6 0 4 7 2 15
-5 8 -7 15 -10 15 -6 0 4 13 0 29 -8 15 -8 39 -17 52 -19 13 -3 44 -10 69 -17
280 -75 623 -85 910 -25 160 34 153 32 270 71 191 64 446 202 605 329 102 81
258 236 335 332 50 62 100 134 100 143 0 5 5 10 10 10 6 0 10 6 10 14 0 8 4
16 8 18 9 4 67 101 63 107 -1 2 1 7 6 10 4 3 21 33 37 66 15 33 32 68 37 78
13 24 50 119 54 137 2 8 16 48 30 89 14 40 28 87 30 104 3 17 7 33 9 36 2 3 7
24 10 46 7 45 13 79 23 115 3 14 7 140 9 280 3 213 0 272 -15 360 -84 478
-303 879 -652 1192 -122 109 -144 128 -156 128 -7 0 -13 5 -13 10 0 6 -8 14
-17 17 -10 4 -27 15 -37 25 -11 10 -26 18 -33 18 -7 0 -13 3 -13 8 0 4 -21 19
-47 32 -27 14 -50 28 -53 31 -17 18 -320 154 -320 142 0 -3 -7 0 -15 7 -8 7
-15 10 -15 6 0 -4 -13 0 -29 8 -16 9 -43 18 -61 21 -19 3 -36 8 -40 10 -7 4
-51 14 -86 19 -11 2 -25 5 -30 8 -5 4 -34 9 -64 13 -30 4 -57 8 -60 10 -13 8
-354 26 -363 19z"/>
<path d="M8022 11908 c-116 -13 -245 -62 -332 -127 -33 -24 -132 -122 -155
-152 -25 -32 -60 -95 -57 -101 1 -5 -3 -8 -9 -8 -5 0 -7 -4 -4 -10 3 -5 2 -10
-2 -10 -12 0 -43 -106 -59 -200 -4 -19 -7 -203 -7 -407 0 -205 -3 -374 -6
-374 -3 -1 -193 -2 -421 -4 -463 -3 -506 -7 -637 -69 -86 -41 -130 -72 -198
-142 -62 -63 -77 -81 -101 -125 -10 -19 -23 -37 -29 -41 -5 -4 -7 -8 -3 -8 4
0 -2 -18 -13 -40 -11 -21 -22 -47 -24 -57 -2 -10 -4 -19 -5 -20 -3 -4 -4 -6
-19 -76 -9 -40 -12 -173 -13 -457 0 -220 -3 -401 -6 -401 -4 -1 -259 -2 -567
-3 -308 -2 -585 -6 -615 -10 -121 -16 -276 -71 -388 -137 -85 -50 -201 -149
-252 -217 -14 -18 -35 -45 -47 -60 -13 -15 -23 -33 -23 -39 0 -7 -4 -13 -8
-13 -7 0 -73 -121 -78 -142 -1 -5 -3 -10 -4 -13 -1 -3 -3 -8 -4 -12 -1 -5 -4
-12 -7 -18 -4 -5 -10 -23 -14 -40 -5 -16 -9 -34 -11 -40 -5 -19 -12 -52 -18
-86 -3 -19 -8 -45 -11 -59 -8 -34 -9 -4061 -1 -4086 3 -10 8 -36 10 -56 9 -68
54 -216 73 -240 6 -7 14 -24 18 -38 13 -42 111 -182 172 -246 144 -150 315
-244 528 -290 72 -15 168 -17 988 -18 l907 -1 1 405 c0 223 2 412 4 420 1 8 5
31 9 51 3 20 11 49 17 65 7 16 12 32 11 37 -1 4 3 7 9 7 5 0 7 5 4 10 -3 6 -2
10 4 10 5 0 13 9 16 21 16 48 109 139 189 184 125 70 -138 65 3407 65 2891 0
3211 -2 3260 -16 67 -19 149 -56 149 -66 0 -5 4 -8 10 -8 29 0 113 -90 158
-170 63 -112 64 -121 67 -580 1 -228 3 -420 4 -425 2 -16 1787 -12 1869 4 270
52 495 195 650 413 17 26 32 51 32 57 0 6 3 11 8 11 8 0 49 84 81 167 19 50
23 62 35 123 3 14 8 39 12 55 4 17 8 944 9 2062 3 2134 3 2112 -40 2245 -37
113 -103 245 -158 315 -18 24 -170 176 -193 193 -39 30 -104 70 -114 70 -5 0
-10 4 -10 9 0 8 -37 24 -52 22 -5 -1 -8 3 -8 9 0 5 -8 10 -18 10 -10 0 -23 5
-30 12 -7 7 -12 8 -12 4 0 -5 -6 -4 -12 2 -13 10 -99 36 -153 47 -82 16 -193
19 -705 19 l-555 1 1 410 c1 369 -1 418 -18 485 -35 141 -106 263 -212 363
-28 26 -54 47 -58 47 -3 0 -13 6 -20 13 -11 11 -122 69 -138 73 -3 0 -12 3
-20 6 -100 39 -145 42 -615 42 l-400 1 1 383 c1 415 -3 460 -53 582 -14 36
-42 89 -62 119 -40 61 -167 191 -188 191 -7 0 -13 4 -13 10 0 5 -11 12 -25 16
-14 3 -25 10 -25 15 0 5 -3 8 -7 7 -5 -1 -23 6 -40 15 -18 10 -33 15 -33 11 0
-4 -6 -2 -12 4 -13 10 -63 25 -128 38 -46 9 -4356 11 -4438 2z"/>
</g>
</svg>
